<svg width="173" height="40" viewBox="0 0 173 40" fill="none" xmlns="http://www.w3.org/2000/svg">
<path d="M50.5574 30.2485C50.1007 28.6367 49.4291 27.0786 48.5695 25.5742C47.7367 24.1236 46.6891 22.7804 45.4533 21.5447C44.2176 20.3089 42.8744 19.2881 41.4238 18.4285C40.6447 17.9718 39.8657 17.5688 39.0598 17.2465H59.4493L58.4016 16.0108C57.6763 15.1511 56.8435 14.3452 55.957 13.6199C55.0705 12.8946 54.1303 12.2498 53.1363 11.6857C51.7394 10.9067 50.2351 10.2888 48.6232 9.88584C47.0651 9.48288 45.4533 9.26797 43.7878 9.26797C42.1222 9.26797 40.5104 9.48288 38.9523 9.88584C38.1733 10.0739 37.4211 10.3425 36.6958 10.638L37.7166 9.6172L47.1189 0.214917L45.5071 0.0805983C44.5937 7.32221e-06 43.6803 0.026871 42.767 0.107462C41.8536 0.188053 40.9671 0.376099 40.0806 0.617872C38.8449 0.967099 37.636 1.47751 36.5077 2.1491C35.4063 2.79383 34.3586 3.59974 33.4184 4.53997C33.3109 4.64742 33.1766 4.78174 33.0154 4.94292L29.7112 1.58496L26.407 4.8892C26.2727 4.75488 26.1652 4.62056 26.004 4.48624C25.0638 3.54601 24.0161 2.7401 22.9147 2.09537C21.7864 1.42378 20.5776 0.913372 19.3418 0.564144C18.4553 0.322371 17.5688 0.161189 16.6555 0.0537347C15.7421 -0.0268564 14.8287 -0.05372 13.9154 0.026871L12.3036 0.161189L22.7267 10.5843C22.0013 10.2888 21.2492 10.047 20.4701 9.83211C18.912 9.42916 17.3002 9.21425 15.6347 9.21425C13.9691 9.21425 12.3573 9.42916 10.7992 9.83211C9.18737 10.2351 7.68301 10.8529 6.2861 11.632C5.29214 12.1961 4.35191 12.8408 3.46541 13.5662C2.57891 14.2915 1.773 15.0974 1.02082 15.957L0 17.2465H20.3895C19.5836 17.5957 18.7777 17.9718 18.0255 18.4285C16.5749 19.2881 15.2317 20.3089 13.996 21.5447C12.7602 22.7804 11.7126 24.1236 10.8798 25.5742C9.99328 27.0517 9.34856 28.6367 8.89187 30.2485C8.56951 31.4036 8.3546 32.5588 8.22028 33.7676C8.11283 34.9496 8.08596 36.1585 8.19342 37.3405L8.32774 38.9523L28.9859 18.2942V37.1256L21.6521 29.8187L20.6044 30.8664L29.7381 40L38.8449 30.8932L37.7972 29.8455L30.4365 37.2062V18.2942L35.5675 23.4251L36.6152 24.4728L42.4715 30.3291L43.5191 31.3768L51.0678 38.9255L51.2022 37.3136C51.3096 36.1316 51.2827 34.9496 51.1753 33.7408C51.0947 32.5856 50.8798 31.4036 50.5574 30.2485ZM39.3015 11.3096C40.7253 10.9335 42.2297 10.7455 43.7609 10.7455C45.319 10.7455 46.7965 10.9335 48.2203 11.3096C49.6978 11.6857 51.0678 12.2498 52.3842 12.9752C53.3244 13.4856 54.184 14.1034 54.9899 14.7482C55.366 15.0705 55.7421 15.3929 56.0913 15.7421H32.8274H31.5111L32.3439 14.9093C32.7737 14.5601 33.2035 14.2109 33.6602 13.8885C34.1437 13.5662 34.6273 13.2438 35.1108 12.9752C36.454 12.2767 37.824 11.7126 39.3015 11.3096ZM34.4661 5.53392C35.3257 4.67429 36.266 3.94897 37.233 3.38483C38.2539 2.79383 39.3284 2.33715 40.4567 2.01478C41.2626 1.79987 42.0685 1.63869 42.8744 1.5581C43.1162 1.53124 43.3848 1.50437 43.6266 1.50437L36.6152 8.51579L34.0363 5.93688C34.1706 5.85629 34.3049 5.69511 34.4661 5.53392ZM15.769 1.50437C16.0107 1.50437 16.2794 1.53124 16.5212 1.5581C17.3271 1.63869 18.133 1.79987 18.9389 2.01478C20.0672 2.33715 21.1417 2.79383 22.1625 3.38483C23.1565 3.97583 24.0698 4.67429 24.9295 5.53392C25.0638 5.66824 25.1981 5.80256 25.3324 5.93688L22.7535 8.51579L15.769 1.50437ZM22.27 22.8879L21.9208 23.2371L9.64406 35.5138C9.64406 34.9765 9.67092 34.4392 9.72465 33.8751C9.8321 32.7737 10.047 31.6991 10.3425 30.6246C10.7723 29.1202 11.3902 27.6696 12.1692 26.2995C12.9483 24.9832 13.9154 23.7206 15.0437 22.5655C16.1988 21.4104 17.4345 20.4433 18.7777 19.6642C20.1478 18.8583 21.5984 18.2404 23.1028 17.8106C23.6938 17.6494 24.2848 17.5151 24.8758 17.4077C25.4399 17.3002 26.0309 17.2196 26.6219 17.1928H27.9114L22.27 22.8879ZM26.595 15.769H3.33109C3.68032 15.4198 4.05641 15.0974 4.43251 14.775C5.23842 14.1034 6.12492 13.5124 7.03828 13.002C8.32774 12.2767 9.72465 11.7126 11.2021 11.3365C12.6259 10.9604 14.1303 10.7455 15.6615 10.7455C17.1927 10.7455 18.6971 10.9335 20.1209 11.3096C21.5984 11.6857 22.9684 12.2498 24.2848 12.9752C24.7952 13.2438 25.2787 13.5662 25.7354 13.8885C26.1921 14.2109 26.6488 14.5601 27.0517 14.9093L27.8845 15.7421H26.595V15.769ZM31.2962 13.8617L29.7112 15.4466L28.1263 13.8617L23.8549 9.59034L29.7112 3.73406L35.5675 9.59034L31.2962 13.8617ZM37.6897 23.4251L31.726 17.4614L31.5111 17.2465H32.8005C33.3915 17.3002 33.9825 17.3808 34.5467 17.4614C35.1377 17.5688 35.7287 17.7032 36.3197 17.8643C37.824 18.2942 39.2747 18.912 40.6447 19.7179C41.961 20.497 43.2236 21.4641 44.3788 22.6192C45.5339 23.7744 46.4741 25.0101 47.2532 26.3533C48.0591 27.7233 48.677 29.174 49.0799 30.6783C49.3754 31.7529 49.5903 32.8274 49.6978 33.9288C49.7515 34.4661 49.7784 35.0034 49.7784 35.5675L37.6897 23.4251Z" fill="url(#paint0_linear_160_895)"/>
<path d="M81.7461 7.30695H79.4089V27.1323H92.7064V25.0907H81.7461V7.30695Z" fill="#222222"/>
<path d="M100.793 12.0618C98.4554 12.0618 96.2257 12.7871 94.7213 14.0766L94.6407 14.1572L95.6884 15.8765L95.7959 15.769C97.0047 14.6945 98.8046 14.0766 100.604 14.0766C103.237 14.0766 104.634 15.3661 104.634 17.8375V18.5897H100.094C95.0437 18.5897 94.2915 21.2761 94.2915 22.8879C94.2915 25.5743 96.4406 27.2935 99.7986 27.2935C102.001 27.2935 103.721 26.5413 104.715 25.1713V27.1592H106.891V17.8912C106.891 14.0766 104.768 12.0618 100.793 12.0618ZM104.634 22.5655C103.882 24.4191 102.27 25.4399 100.094 25.4399C97.8375 25.4399 96.5212 24.446 96.5212 22.8073C96.5212 21.1417 97.7032 20.309 100.175 20.309H104.661V22.5655H104.634Z" fill="#222222"/>
<path d="M123.788 14.6945C122.525 13.0021 120.537 12.0618 118.119 12.0618C113.768 12.0618 110.598 15.0974 110.598 19.2882C110.598 23.5058 113.768 26.5682 118.119 26.5682C120.457 26.5682 122.471 25.628 123.707 24.0162V25.4668C123.707 29.0128 122.015 30.6783 118.415 30.6783C116.185 30.6783 114.117 29.953 112.72 28.6904L112.612 28.583L111.457 30.3291L111.538 30.4097C113.069 31.8603 115.648 32.72 118.469 32.72C123.519 32.72 125.964 30.2754 125.964 25.225V12.1693H123.788V14.6945ZM118.281 24.5534C115.084 24.5534 112.854 22.3775 112.854 19.2882C112.854 16.1988 115.084 14.0497 118.281 14.0497C121.504 14.0497 123.734 16.1988 123.734 19.2882C123.761 22.3775 121.504 24.5534 118.281 24.5534Z" fill="#222222"/>
<path d="M150.168 12.0618C147.804 12.0618 145.923 12.9215 144.768 14.4796V12.1693H144.715H142.539H142.512V20.0135C142.512 23.264 140.685 25.225 137.649 25.225C134.856 25.225 133.378 23.6401 133.378 20.6313V12.1693H131.095V20.8194C131.095 24.9295 133.405 27.2667 137.435 27.2667C139.584 27.2667 141.41 26.3802 142.539 24.8489V27.1323H142.592H144.768H144.795V19.2882C144.795 16.0377 146.676 14.1035 149.819 14.1035C152.613 14.1035 154.09 15.6884 154.09 18.6703V27.1323H156.347V18.4822C156.347 14.4527 154.036 12.0618 150.168 12.0618Z" fill="#222222"/>
<path d="M166.743 12.0618C164.406 12.0618 162.176 12.7871 160.672 14.0766L160.591 14.1572L161.639 15.8765L161.746 15.769C162.955 14.6945 164.755 14.0766 166.555 14.0766C169.187 14.0766 170.584 15.3661 170.584 17.8375V18.5897H166.044C160.994 18.5897 160.242 21.2761 160.242 22.8879C160.242 25.5743 162.391 27.2935 165.749 27.2935C167.952 27.2935 169.671 26.5413 170.665 25.1713V27.1592H172.841V17.8912C172.841 14.0766 170.719 12.0618 166.743 12.0618ZM170.584 22.5655C169.832 24.4191 168.22 25.4399 166.044 25.4399C163.788 25.4399 162.471 24.446 162.471 22.8073C162.471 21.1417 163.653 20.309 166.125 20.309H170.584V22.5655Z" fill="#222222"/>
<defs>
<linearGradient id="paint0_linear_160_895" x1="0" y1="20.01" x2="59.4667" y2="20.01" gradientUnits="userSpaceOnUse">
<stop stop-color="#93FB9D"/>
<stop offset="1" stop-color="#09C7FB"/>
</linearGradient>
</defs>
</svg>
